REM DIRINDEX 1\2\4,1\2\5,1\2\6,1\3\7,1\3\8,1\3\9,1\3\10
REM DIRNAME folder01,folder02,folder03,folder04,folder05,folder06,folder07,folder08,folder09,folder10
TITLE ""
FILE "b_193.mp3" MP3
  TRACK 01 AUDIO
    TITLE "0:"
    INDEX 01 00:00:00
  TRACK 02 AUDIO
    TITLE "7:cjc057_09961"
    INDEX 01 00:00:13
  TRACK 03 AUDIO
    TITLE "0:"
    INDEX 01 00:01:32
  TRACK 04 AUDIO
    TITLE "8:cjc057_09962"
    INDEX 01 00:01:66
  TRACK 05 AUDIO
    TITLE "0:"
    INDEX 01 00:04:50
  TRACK 06 AUDIO
    TITLE "9:cjc057_09963"
    INDEX 01 00:05:22
  TRACK 07 AUDIO
    TITLE "0:"
    INDEX 01 00:08:54
  TRACK 08 AUDIO
    TITLE "7:cjc057_09964"
    INDEX 01 00:09:61
  TRACK 09 AUDIO
    TITLE "0:"
    INDEX 01 00:11:21
  TRACK 10 AUDIO
    TITLE "8:cjc057_09965"
    INDEX 01 00:11:56
  TRACK 11 AUDIO
    TITLE "0:"
    INDEX 01 00:13:30
  TRACK 12 AUDIO
    TITLE "9:cjc057_09966"
    INDEX 01 00:14:02
  TRACK 13 AUDIO
    TITLE "0:"
    INDEX 01 00:17:63
  TRACK 14 AUDIO
    TITLE "7:cjc057_09967"
    INDEX 01 00:18:72
  TRACK 15 AUDIO
    TITLE "0:"
    INDEX 01 00:20:28
  TRACK 16 AUDIO
    TITLE "8:cjc057_09968"
    INDEX 01 00:20:63
  TRACK 17 AUDIO
    TITLE "0:"
    INDEX 01 00:22:17
  TRACK 18 AUDIO
    TITLE "9:cjc057_09969"
    INDEX 01 00:22:64
  TRACK 19 AUDIO
    TITLE "0:"
    INDEX 01 00:27:10
  TRACK 20 AUDIO
    TITLE "7:cjc057_09970"
    INDEX 01 00:28:19
  TRACK 21 AUDIO
    TITLE "0:"
    INDEX 01 00:29:46
  TRACK 22 AUDIO
    TITLE "8:cjc057_09971"
    INDEX 01 00:30:06
  TRACK 23 AUDIO
    TITLE "0:"
    INDEX 01 00:31:49
  TRACK 24 AUDIO
    TITLE "9:cjc057_09972"
    INDEX 01 00:32:23
  TRACK 25 AUDIO
    TITLE "0:"
    INDEX 01 00:35:63
  TRACK 26 AUDIO
    TITLE "7:cjc057_09973"
    INDEX 01 00:36:72
  TRACK 27 AUDIO
    TITLE "0:"
    INDEX 01 00:38:14
  TRACK 28 AUDIO
    TITLE "8:cjc057_09974"
    INDEX 01 00:38:49
  TRACK 29 AUDIO
    TITLE "0:"
    INDEX 01 00:40:11
  TRACK 30 AUDIO
    TITLE "9:cjc057_09975"
    INDEX 01 00:40:58
  TRACK 31 AUDIO
    TITLE "0:"
    INDEX 01 00:44:36
  TRACK 32 AUDIO
    TITLE "7:cjc057_09976"
    INDEX 01 00:45:45
  TRACK 33 AUDIO
    TITLE "0:"
    INDEX 01 00:46:54
  TRACK 34 AUDIO
    TITLE "8:cjc057_09977"
    INDEX 01 00:47:13
  TRACK 35 AUDIO
    TITLE "0:"
    INDEX 01 00:49:51
  TRACK 36 AUDIO
    TITLE "9:cjc057_09978"
    INDEX 01 00:50:21
  TRACK 37 AUDIO
    TITLE "0:"
    INDEX 01 00:52:43
  TRACK 38 AUDIO
    TITLE "7:cjc057_09979"
    INDEX 01 00:53:55
  TRACK 39 AUDIO
    TITLE "0:"
    INDEX 01 00:54:68
  TRACK 40 AUDIO
    TITLE "8:cjc057_09980"
    INDEX 01 00:55:28
  TRACK 41 AUDIO
    TITLE "0:"
    INDEX 01 00:58:50
  TRACK 42 AUDIO
    TITLE "9:cjc057_09981"
    INDEX 01 00:59:22
  TRACK 43 AUDIO
    TITLE "0:"
    INDEX 01 01:02:73
  TRACK 44 AUDIO
    TITLE "7:cjc057_09982"
    INDEX 01 01:04:11
  TRACK 45 AUDIO
    TITLE "0:"
    INDEX 01 01:05:46
  TRACK 46 AUDIO
    TITLE "8:cjc057_09983"
    INDEX 01 01:06:06
  TRACK 47 AUDIO
    TITLE "0:"
    INDEX 01 01:08:62
  TRACK 48 AUDIO
    TITLE "9:cjc057_09984"
    INDEX 01 01:09:34
  TRACK 49 AUDIO
    TITLE "0:"
    INDEX 01 01:13:04
  TRACK 50 AUDIO
    TITLE "7:cjc057_09985"
    INDEX 01 01:14:16
  TRACK 51 AUDIO
    TITLE "0:"
    INDEX 01 01:15:27
  TRACK 52 AUDIO
    TITLE "8:cjc057_09986"
    INDEX 01 01:15:60
  TRACK 53 AUDIO
    TITLE "0:"
    INDEX 01 01:17:20
  TRACK 54 AUDIO
    TITLE "9:cjc057_09987"
    INDEX 01 01:17:67
  TRACK 55 AUDIO
    TITLE "0:"
    INDEX 01 01:20:57
  TRACK 56 AUDIO
    TITLE "7:cjc057_09988"
    INDEX 01 01:21:67
  TRACK 57 AUDIO
    TITLE "0:"
    INDEX 01 01:23:07
  TRACK 58 AUDIO
    TITLE "8:cjc057_09989"
    INDEX 01 01:23:42
  TRACK 59 AUDIO
    TITLE "0:"
    INDEX 01 01:26:03
  TRACK 60 AUDIO
    TITLE "9:cjc057_09990"
    INDEX 01 01:26:50
  TRACK 61 AUDIO
    TITLE "0:"
    INDEX 01 01:29:33
  TRACK 62 AUDIO
    TITLE "7:cjc057_09991"
    INDEX 01 01:30:44
  TRACK 63 AUDIO
    TITLE "0:"
    INDEX 01 01:31:65
  TRACK 64 AUDIO
    TITLE "8:cjc057_09992"
    INDEX 01 01:32:25
  TRACK 65 AUDIO
    TITLE "0:"
    INDEX 01 01:33:56
  TRACK 66 AUDIO
    TITLE "9:cjc057_09993"
    INDEX 01 01:34:30
  TRACK 67 AUDIO
    TITLE "0:"
    INDEX 01 01:38:34
  TRACK 68 AUDIO
    TITLE "7:cjc057_09994"
    INDEX 01 01:39:41
  TRACK 69 AUDIO
    TITLE "0:"
    INDEX 01 01:40:70
  TRACK 70 AUDIO
    TITLE "8:cjc057_09995"
    INDEX 01 01:41:30
  TRACK 71 AUDIO
    TITLE "0:"
    INDEX 01 01:43:23
  TRACK 72 AUDIO
    TITLE "9:cjc057_09996"
    INDEX 01 01:43:68
  TRACK 73 AUDIO
    TITLE "0:"
    INDEX 01 01:46:29
  TRACK 74 AUDIO
    TITLE "7:cjc057_09997"
    INDEX 01 01:47:40
  TRACK 75 AUDIO
    TITLE "0:"
    INDEX 01 01:48:48
  TRACK 76 AUDIO
    TITLE "8:cjc057_09998"
    INDEX 01 01:49:08
  TRACK 77 AUDIO
    TITLE "0:"
    INDEX 01 01:51:40
  TRACK 78 AUDIO
    TITLE "9:cjc057_09999"
    INDEX 01 01:52:10
  TRACK 79 AUDIO
    TITLE "0:"
    INDEX 01 01:54:70
  TRACK 80 AUDIO
    TITLE "7:cjc057_10000"
    INDEX 01 01:56:04
  TRACK 81 AUDIO
    TITLE "0:"
    INDEX 01 01:57:23
  TRACK 82 AUDIO
    TITLE "8:cjc057_10001"
    INDEX 01 01:57:57
  TRACK 83 AUDIO
    TITLE "0:"
    INDEX 01 02:00:18
  TRACK 84 AUDIO
    TITLE "9:cjc057_10002"
    INDEX 01 02:00:67
  TRACK 85 AUDIO
    TITLE "0:"
    INDEX 01 02:05:15
  TRACK 86 AUDIO
    TITLE "7:cjc057_10003"
    INDEX 01 02:06:20
  TRACK 87 AUDIO
    TITLE "0:"
    INDEX 01 02:07:43
  TRACK 88 AUDIO
    TITLE "8:cjc057_10004"
    INDEX 01 02:08:03
  TRACK 89 AUDIO
    TITLE "0:"
    INDEX 01 02:09:17
  TRACK 90 AUDIO
    TITLE "9:cjc057_10005"
    INDEX 01 02:09:64
  TRACK 91 AUDIO
    TITLE "0:"
    INDEX 01 02:12:60
  TRACK 92 AUDIO
    TITLE "7:cjc057_10006"
    INDEX 01 02:13:71
  TRACK 93 AUDIO
    TITLE "0:"
    INDEX 01 02:15:13
  TRACK 94 AUDIO
    TITLE "8:cjc057_10007"
    INDEX 01 02:15:49
  TRACK 95 AUDIO
    TITLE "0:"
    INDEX 01 02:17:04
  TRACK 96 AUDIO
    TITLE "9:cjc057_10008"
    INDEX 01 02:17:53
  TRACK 97 AUDIO
    TITLE "0:"
    INDEX 01 02:20:63
  TRACK 98 AUDIO
    TITLE "7:cjc057_10009"
    INDEX 01 02:21:73
  TRACK 99 AUDIO
    TITLE "0:"
    INDEX 01 02:23:17
  TRACK 100 AUDIO
    TITLE "8:cjc057_10010"
    INDEX 01 02:23:52
  TRACK 101 AUDIO
    TITLE "0:"
    INDEX 01 02:26:68
  TRACK 102 AUDIO
    TITLE "9:cjc057_10011"
    INDEX 01 02:27:40
  TRACK 103 AUDIO
    TITLE "0:"
    INDEX 01 02:30:34
  TRACK 104 AUDIO
    TITLE "7:cjc057_10012"
    INDEX 01 02:31:42
  TRACK 105 AUDIO
    TITLE "0:"
    INDEX 01 02:32:49
  TRACK 106 AUDIO
    TITLE "8:cjc057_10013"
    INDEX 01 02:33:07
  TRACK 107 AUDIO
    TITLE "0:"
    INDEX 01 02:35:24
  TRACK 108 AUDIO
    TITLE "9:cjc057_10014"
    INDEX 01 02:35:71
  TRACK 109 AUDIO
    TITLE "0:"
    INDEX 01 02:39:67
  TRACK 110 AUDIO
    TITLE "7:cjc057_10015"
    INDEX 01 02:41:01
  TRACK 111 AUDIO
    TITLE "0:"
    INDEX 01 02:42:10
  TRACK 112 AUDIO
    TITLE "8:cjc057_10016"
    INDEX 01 02:42:45
  TRACK 113 AUDIO
    TITLE "0:"
    INDEX 01 02:46:57
  TRACK 114 AUDIO
    TITLE "9:cjc057_10017"
    INDEX 01 02:47:29
  TRACK 115 AUDIO
    TITLE "0:"
    INDEX 01 02:49:67
  TRACK 116 AUDIO
    TITLE "7:cjc057_10018"
    INDEX 01 02:51:01
  TRACK 117 AUDIO
    TITLE "0:"
    INDEX 01 02:52:12
  TRACK 118 AUDIO
    TITLE "8:cjc057_10019"
    INDEX 01 02:52:46
  TRACK 119 AUDIO
    TITLE "0:"
    INDEX 01 02:55:11
  TRACK 120 AUDIO
    TITLE "9:cjc057_10020"
    INDEX 01 02:55:56
  TRACK 121 AUDIO
    TITLE "0:"
    INDEX 01 02:59:22
  TRACK 122 AUDIO
    TITLE "7:cjc057_10021"
    INDEX 01 03:00:34
  TRACK 123 AUDIO
    TITLE "0:"
    INDEX 01 03:01:45
  TRACK 124 AUDIO
    TITLE "8:cjc057_10022"
    INDEX 01 03:02:05
  TRACK 125 AUDIO
    TITLE "0:"
    INDEX 01 03:04:53
  TRACK 126 AUDIO
    TITLE "9:cjc057_10023"
    INDEX 01 03:05:25
  TRACK 127 AUDIO
    TITLE "0:"
    INDEX 01 03:08:51
  TRACK 128 AUDIO
    TITLE "7:cjc057_10024"
    INDEX 01 03:09:60
  TRACK 129 AUDIO
    TITLE "0:"
    INDEX 01 03:10:61
  TRACK 130 AUDIO
    TITLE "8:cjc057_10025"
    INDEX 01 03:11:22
  TRACK 131 AUDIO
    TITLE "0:"
    INDEX 01 03:14:36
  TRACK 132 AUDIO
    TITLE "9:cjc057_10026"
    INDEX 01 03:15:10
  TRACK 133 AUDIO
    TITLE "0:"
    INDEX 01 03:18:02
